<svg width="343" height="218" version="1.1" xmlns="http://www.w3.org/2000/svg" desc="Created with imagetracer.js version 1.2.6">
  <path fill="rgb(0,0,0)" stroke="rgb(0,0,0)" stroke-width="1" opacity="0" d="M 0 0 L 343 0 L 343 218 L 0 218 L 0 0 Z M 274 13 L 267 17 L 264 21 L 256 21 L 255 20 L 253 21 L 238 21 L 215 14 L 197 14 L 192 15 L 182 20 L 163 34 Q 155 40 143 41 L 141 44 L 156 44 L 166 41 L 190 25 L 200 22 L 216 22 L 241 30 L 260 30 L 261 38 L 263 42 L 266 43 L 268 42 L 269 41 L 270 28 L 272 24 L 278 22 Q 281 26 280 34 L 287 37 Q 289 36 288 39 L 292 40 L 301 48 L 307 59 Q 308 65 306 67 Q 303 65 297 66 Q 294 67 295 71 Q 298 75 305 74 L 306 72 L 315 88 L 320 92 L 316 97 L 312 100 L 304 100 L 298 97 Q 294 98 295 95 L 290 94 L 276 95 L 267 99 Q 260 104 261 117 L 261 119 L 263 125 Q 272 133 277 146 L 279 145 L 278 133 L 269 113 L 269 104 L 274 101 L 292 103 L 302 108 Q 315 110 321 104 L 322 102 L 325 100 L 328 95 L 328 88 L 324 84 L 313 69 L 315 63 Q 314 49 307 43 Q 300 33 290 28 L 288 27 L 286 18 Q 284 11 274 13 Z M 93 32 L 92 33 L 78 34 L 69 37 Q 55 43 45 52 L 43 55 L 40 57 Q 41 59 38 58 L 30 71 L 27 80 L 25 90 L 24 124 L 22 129 L 21 139 L 18 145 L 18 148 L 11 160 L 5 180 L 5 198 L 7 203 L 11 206 L 18 209 L 46 209 Q 51 206 60 207 L 59 199 L 54 193 Q 55 190 53 191 L 48 185 Q 53 178 62 175 L 64 171 L 62 170 L 46 176 L 39 182 Q 38 188 41 190 Q 40 192 43 191 L 43 193 L 53 201 L 46 202 L 23 202 L 17 200 L 13 196 Q 14 191 12 190 L 12 183 L 15 169 L 28 150 L 32 141 L 34 132 L 35 118 L 36 117 L 37 101 Q 40 95 40 87 L 43 81 L 43 78 L 51 65 L 70 48 L 82 42 L 90 41 L 94 39 L 110 39 Q 115 42 124 42 L 131 45 Q 133 46 132 44 L 130 41 L 116 35 L 93 32 Z" />
  <path fill="rgb(135,198,173)" stroke="rgb(135,198,173)" stroke-width="1" opacity="0.6666666666666666" d="M 273.5 13 Q 284 11 286 17.5 L 288 26.5 L 289.5 28 Q 300.4 33.1 307 42.5 Q 314.2 49.3 315 62.5 L 313 68.5 L 323.5 84 L 328 87.5 L 328 94.5 L 325 100 L 322 101.5 L 320.5 104 Q 314.8 109.8 301.5 108 L 291.5 103 L 273.5 101 L 269 103.5 L 269 112.5 L 278 132.5 L 279 144.5 L 276.5 146 Q 271.9 133.1 263 124.5 L 261 118.5 L 261 116.5 Q 260 104 266.5 99 L 275.5 95 L 289.5 94 L 295 95 Q 293.8 98 297.5 97 L 303.5 100 L 311.5 100 L 316 96.5 L 320 91.5 L 315 87.5 L 305.5 72 L 305 74 Q 297.5 75.3 295 70.5 Q 294.3 66.8 296.5 66 Q 303.3 65.1 306 67 Q 307.8 64.6 307 58.5 L 301 48 L 291.5 40 L 288 39 Q 289.1 36.3 286.5 37 L 280 34 Q 281.4 25.8 277.5 22 L 272 24 L 270 27.5 L 269 40.5 L 267.5 42 L 265.5 43 L 263 42 L 261 37.5 L 260 30 L 240.5 30 L 215.5 22 L 199.5 22 L 189.5 25 L 165.5 41 L 155.5 44 L 141 44 L 142.5 41 Q 154.8 39.7 162.5 34 L 181.5 20 L 191.5 15 L 196.5 14 L 214.5 14 L 237.5 21 L 252.5 21 L 254.5 20 L 255.5 21 L 263.5 21 L 266.5 17 L 273.5 13 Z" />
  <path fill="rgb(135,198,173)" stroke="rgb(135,198,173)" stroke-width="1" opacity="0.6666666666666666" d="M 92.5 32 L 115.5 35 L 129.5 41 L 132 43.5 Q 132.8 45.8 130.5 45 L 123.5 42 Q 114.9 42.1 109.5 39 L 93.5 39 L 89.5 41 L 81.5 42 L 69.5 48 L 51 64.5 L 43 77.5 L 43 80.5 L 40 86.5 Q 40.1 95.1 37 100.5 L 36 116.5 L 35 117.5 L 34 131.5 L 32 140.5 L 28 149.5 L 15 168.5 L 12 182.5 L 12 189.5 Q 14.2 190.8 13 195.5 L 16.5 200 L 22.5 202 L 45.5 202 L 53 200.5 L 43 193 L 43 191 Q 40.3 192.1 41 189.5 Q 38 187.5 39 181.5 L 45.5 176 L 61.5 170 L 64 171 L 61.5 175 Q 53.1 178.1 48 184.5 L 52.5 191 Q 54.8 190.3 54 192.5 L 59 198.5 L 60 207 Q 50.7 205.6 45.5 209 L 17.5 209 L 10.5 206 L 7 202.5 L 5 197.5 L 5 179.5 L 11 159.5 L 18 147.5 L 18 144.5 L 21 138.5 L 22 128.5 L 24 123.5 L 25 89.5 L 27 79.5 L 30 70.5 L 38 58 Q 40.7 59.1 40 56.5 L 43 55 L 44.5 52 Q 54.6 42.6 68.5 37 L 77.5 34 L 91.5 33 L 92.5 32 Z" />
</svg>